<?xml version="1.0" encoding="utf-8"?>
<!-- Generator: Adobe Illustrator 22.1.0, SVG Export Plug-In . SVG Version: 6.00 Build 0)  -->
<svg version="1.1" id="Слой_1" xmlns="http://www.w3.org/2000/svg" xmlns:xlink="http://www.w3.org/1999/xlink" x="0px" y="0px"
	 viewBox="0 0 552 388" style="enable-background:new 0 0 552 388;" xml:space="preserve">
<style type="text/css">
	.st0{fill:#F47F2B;}
	.st1{fill:#EE362F;}
	.st2{fill:#2D2D2D;}
</style>
<g>
	<g>
		<rect x="351" y="15" class="st0" width="18.4" height="13.3"/>
		<rect x="262.7" y="15" class="st1" width="18.4" height="13.3"/>
		<polygon class="st2" points="287.9,16.8 343.9,16.8 343.9,32.8 326.1,32.8 326.1,78.2 305.8,78.2 305.8,32.9 287.9,32.9 		"/>
		<rect x="263" y="33.7" class="st2" width="17.2" height="44.5"/>
		<rect x="351.3" y="33.7" class="st2" width="17.3" height="44.5"/>
		<path class="st0" d="M458.8,39c0.9,1.2,1.5,1.8,2,2.5c13.8,15.8,24.9,33.4,33.5,52.5c13.6,30.7,19.2,62.7,13.6,96.2
			c-5,29.8-18.1,56-36.3,79.9c-3.6,4.8-7.5,9.3-11.2,14c7.3,7.2,14.6,14.3,22.1,21.6c0.5-0.5,1.3-1.2,2-2.1
			c16.8-19.7,30.2-41.6,40.2-65.6c16.4-39.3,21.5-79.8,11.2-121.6c-9.3-37.6-29.1-69.3-55-97.6c-0.2-0.2-0.6-0.3-0.2-0.1
			C473.1,25.5,466.1,32.1,458.8,39z"/>
		<path class="st1" d="M133,243.4c-19.8-23.5-33.4-50.1-34.4-81.8c-1-32.2,12.7-58.6,33.5-81.7c-6.8-6.7-13.4-13.2-20.3-20
			c-25.3,29-42.3,62-42.9,101.7c-0.6,40.6,17.4,73.4,43.7,102.6C119.5,257.3,126.1,250.5,133,243.4z"/>
		<path class="st0" d="M419.7,244.2c6.8,6.6,13.4,13.1,20.4,19.9c25.3-29,42.2-61.8,42.9-101.4c0.8-40.7-17.3-73.6-43.7-103
			c-6.9,7.1-13.6,13.9-20.4,20.8c19.8,23.6,33.4,50.1,34.4,81.8C454.3,194.6,440.6,221,419.7,244.2z"/>
		<path class="st1" d="M181.6,161.8c-0.1,23.6,18.8,42.7,42.3,42.8c23.4,0.1,42.6-18.9,42.7-42.4c0.1-23.6-18.8-42.7-42.3-42.8
			C200.7,119.4,181.7,138.3,181.6,161.8z"/>
		<path class="st0" d="M285.4,162c0,23.6,19,42.6,42.5,42.7c23.5,0,42.5-19.1,42.5-42.6c0-23.6-18.9-42.6-42.5-42.6
			C304.3,119.4,285.4,138.4,285.4,162z"/>
		<path class="st1" d="M152.7,101.4c-31.8,29.9-31,99.5,2.1,121.7c5.6-6,11.3-12.1,17-18.1c-21-28-23.7-56.5-0.2-85
			C165.3,113.8,159.1,107.7,152.7,101.4z"/>
		<path class="st0" d="M399.1,222.7c14-12.8,25.8-46.3,23.9-69.9c-1.6-20.6-11.1-37.4-25.5-52.2c-6,6.4-11.6,12.4-17.4,18.6
			c20.9,27.9,23.6,56.5,0,85.1C386.7,210.6,392.9,216.6,399.1,222.7z"/>
		<path class="st1" d="M11,151.9c1.2-8.1,2.1-16.3,3.7-24.3c8.3-40.7,26.9-76.3,53.6-107.9c0.5-0.6,0.8-1.2,1-1.5
			c7.6,7.4,14.8,14.5,22.3,21.9c-0.7,0.8-1.5,1.8-2.3,2.8c-20.1,23.5-35.7,49.5-43,79.9c-9.4,39-3.5,76.2,13.5,112
			c8.2,17.4,18.6,33.4,31.3,47.9c0.6,0.6,1,1.3,1.7,2.2c-7.2,6.8-14.3,13.5-21.7,20.4c0.6,0.3,0.2,0.2,0,0
			c-26.3-28.8-46.4-61.1-55.3-99.5c-1.9-8.3-2.8-16.9-4.2-25.4c-0.2-1.2-0.5-2.4-0.7-3.6C11,168.5,11,160.2,11,151.9z"/>
		<path class="st0" d="M458.8,39c7.3-6.9,14.4-13.5,21.7-20.4c-0.4-0.2,0-0.1,0.2,0.1c25.9,28.3,45.7,60,55,97.6
			c10.3,41.8,5.2,82.3-11.2,121.6c-9.9,23.9-23.3,45.8-40.2,65.6c-0.7,0.8-1.5,1.6-2,2.1c-7.4-7.3-14.7-14.4-22.1-21.6
			c3.7-4.6,7.6-9.2,11.2-14c18.2-23.8,31.3-50,36.3-79.9c5.6-33.5,0.1-65.4-13.6-96.2c-8.5-19.2-19.6-36.7-33.5-52.5
			C460.2,40.8,459.7,40.1,458.8,39z"/>
		<path class="st1" d="M133,243.4c-6.8,7.1-13.5,13.9-20.3,20.9c-26.4-29.2-44.4-62-43.7-102.6C69.6,122,86.5,89,111.8,60
			c6.9,6.8,13.5,13.3,20.3,20c-20.8,23.1-34.6,49.5-33.5,81.7C99.6,193.3,113.2,219.9,133,243.4z"/>
		<path class="st0" d="M419.7,244.2c20.9-23.2,34.6-49.6,33.6-81.7c-1-31.7-14.6-58.3-34.4-81.8c6.7-6.9,13.4-13.8,20.4-20.8
			c26.5,29.3,44.5,62.2,43.7,103c-0.7,39.6-17.6,72.4-42.9,101.4C433.1,257.3,426.5,250.8,419.7,244.2z"/>
		<path class="st1" d="M181.6,161.8c0.1-23.6,19.1-42.4,42.7-42.4c23.5,0.1,42.4,19.2,42.3,42.8c-0.1,23.5-19.2,42.6-42.7,42.4
			C200.4,204.5,181.5,185.4,181.6,161.8z"/>
		<path class="st0" d="M285.4,162c0-23.6,19-42.6,42.5-42.6c23.5,0,42.5,19,42.5,42.6c0,23.5-19,42.6-42.5,42.6
			C304.3,204.7,285.4,185.6,285.4,162z"/>
		<path class="st1" d="M152.7,101.4c6.4,6.3,12.6,12.4,18.9,18.6c-23.5,28.5-20.7,57,0.2,85c-5.7,6.1-11.4,12.1-17,18.1
			C121.7,201,120.8,131.3,152.7,101.4z"/>
		<path class="st0" d="M399.1,222.7c-6.2-6.1-12.4-12.1-18.9-18.4c23.6-28.5,20.9-57.2,0-85.1c5.7-6.1,11.4-12.2,17.4-18.6
			c14.4,14.8,23.9,31.7,25.5,52.2C424.9,176.3,413.2,209.9,399.1,222.7z"/>
		<polygon class="st2" points="172.7,16.7 192.5,16.7 199.2,54.4 207,16.7 223.5,16.7 231,54.4 238.2,16.7 257.7,16.7 242.5,78.3 
			222.7,78.3 215.2,43.1 208.3,78.3 187.9,78.3 		"/>
	</g>
	<g>
		<path class="st2" d="M193.3,341.4V324h39.8v35.6c-7.6,5.2-14.4,8.7-20.2,10.6c-5.9,1.9-12.8,2.8-20.9,2.8c-9.9,0-18-1.7-24.2-5.1
			c-6.2-3.4-11.1-8.4-14.5-15.1s-5.1-14.3-5.1-23c0-9.1,1.9-17,5.6-23.8c3.8-6.7,9.3-11.8,16.5-15.3c5.7-2.7,13.3-4,22.8-4
			c9.2,0,16.1,0.8,20.7,2.5c4.6,1.7,8.4,4.3,11.4,7.8c3,3.5,5.3,8,6.8,13.3l-24.9,4.4c-1-3.1-2.8-5.6-5.2-7.2
			c-2.4-1.7-5.6-2.5-9.4-2.5c-5.7,0-10.2,2-13.5,5.9s-5,10.1-5,18.6c0,9,1.7,15.5,5.1,19.3c3.4,3.9,8.1,5.8,14.2,5.8
			c2.9,0,5.6-0.4,8.2-1.2c2.6-0.8,5.6-2.3,9-4.3v-7.9H193.3z"/>
		<path class="st2" d="M248.4,288.2h42.8c9.3,0,16.3,2.2,21,6.7c4.6,4.4,7,10.8,7,18.9c0,8.4-2.5,15-7.6,19.7
			c-5.1,4.7-12.8,7.1-23.2,7.1h-14.1v30.9h-25.9V288.2z M274.2,323.8h6.3c5,0,8.5-0.9,10.5-2.6c2-1.7,3-3.9,3-6.6
			c0-2.6-0.9-4.8-2.6-6.7c-1.7-1.8-5-2.7-9.8-2.7h-7.3V323.8z"/>
		<path class="st2" d="M328.1,344l24.5-1.5c0.5,4,1.6,7,3.2,9.1c2.7,3.4,6.4,5.1,11.4,5.1c3.7,0,6.5-0.9,8.5-2.6c2-1.7,3-3.7,3-6
			c0-2.2-0.9-4.1-2.8-5.8c-1.9-1.7-6.3-3.3-13.2-4.8c-11.3-2.5-19.4-5.9-24.2-10.1c-4.9-4.2-7.3-9.6-7.3-16.1
			c0-4.3,1.2-8.3,3.7-12.1c2.5-3.8,6.2-6.8,11.2-9c5-2.2,11.8-3.3,20.5-3.3c10.7,0,18.8,2,24.4,5.9c5.6,4,8.9,10.3,10,18.9
			l-24.3,1.4c-0.6-3.8-2-6.5-4.1-8.2c-2.1-1.7-4.9-2.6-8.6-2.6c-3,0-5.3,0.6-6.8,1.9c-1.5,1.3-2.3,2.8-2.3,4.6
			c0,1.3,0.6,2.5,1.9,3.6c1.2,1.1,4.1,2.1,8.6,3.1c11.3,2.4,19.3,4.9,24.2,7.4c4.9,2.5,8.4,5.6,10.6,9.2c2.2,3.7,3.3,7.8,3.3,12.3
			c0,5.3-1.5,10.3-4.4,14.8c-3,4.5-7.1,7.9-12.4,10.3c-5.3,2.3-12,3.5-20.1,3.5c-14.2,0-24-2.7-29.5-8.2
			C331.9,359.4,328.8,352.4,328.1,344z"/>
	</g>
</g>
</svg>
