<?xml version="1.0" encoding="utf-8"?>
<!-- Generator: Adobe Illustrator 22.1.0, SVG Export Plug-In . SVG Version: 6.00 Build 0)  -->
<svg version="1.1" id="Слой_1" xmlns="http://www.w3.org/2000/svg" xmlns:xlink="http://www.w3.org/1999/xlink" x="0px" y="0px"
	 viewBox="0 0 875 180" style="enable-background:new 0 0 875 180;" xml:space="preserve">
<style type="text/css">
	.st0{fill:#FFFFFF;}
	.st1{fill:#E3072B;}
</style>
<g>
	<g>
		<g>
			<g>
				<path id="XMLID_102_" class="st0" d="M621.9,42.2c-0.3,1.3-0.6,2.7-0.8,4c-1.7,7.9-3.4,15.8-5,23.6c-1.4,6.5-2.8,13-4.2,19.6
					c-0.1,0.3-0.1,0.7-0.2,1.1c0,0.1,0,0.2,0.1,0.2c0.1,0,0.2,0,0.2,0c0.2-0.2,0.5-0.4,0.7-0.6c7.2-7.2,14.4-14.5,21.5-21.7
					c0.3-0.3,0.6-0.6,0.9-0.9c0.7-0.7,1.6-1,2.6-1c2.2,0,4.5,0,6.7,0c4.5,0,9,0,13.5,0c0.3,0,0.8-0.2,1,0.2c0.3,0.5-0.3,0.7-0.6,0.9
					c-5.9,5.8-11.9,11.6-17.8,17.4c-1.4,1.4-2.9,2.8-4.3,4.2c-1,1-0.9,0.9-0.4,2c4.3,9.3,8.5,18.5,12.8,27.8
					c0.4,0.9,0.9,1.9,1.3,2.8c0.3,0.6,0.2,0.8-0.5,0.8c-0.2,0-0.4,0-0.5,0c-7.3,0-14.7,0-22,0c-1.9,0-1.9,0-2.7-1.8
					c-4-9.4-8.1-18.7-12.1-28.1c-0.1-0.2-0.1-0.3-0.2-0.5c-0.1-0.1-0.2-0.2-0.3-0.2c-0.2,0-0.2,0.1-0.2,0.3
					c-0.3,1.3-0.6,2.6-0.9,3.9c-1.8,8.3-3.5,16.6-5.3,24.9c-0.1,0.3-0.1,0.5-0.2,0.8c-0.1,0.4-0.4,0.7-0.9,0.7c-0.3,0-0.6,0-0.9,0
					c-6,0-12,0-18.1,0c-1.7,0-1.6-0.1-1.3-1.6c2.2-10.4,4.5-20.8,6.7-31.2c2.6-12.4,5.3-24.9,7.9-37.3c0.6-3,1.3-6,1.9-9.1
					c0-0.2,0.1-0.4,0.2-0.7c0.2-0.9,0.3-1,1.2-1c0.3,0,0.5,0,0.8,0c6,0,12,0,17.9,0C620.7,42,621.3,41.9,621.9,42.2z"/>
				<path id="XMLID_101_" class="st0" d="M817,90.7c0.7-0.4,1.2-0.9,1.7-1.3c7.2-7.2,14.4-14.5,21.5-21.7c0.1-0.1,0.2-0.2,0.3-0.3
					c0.6-0.7,1.3-0.9,2.3-0.9c4.3,0,8.5,0,12.8,0c2.6,0,5.1,0,7.7,0c0.3,0,0.5,0,0.8,0c0.1,0,0.3,0.3,0.2,0.4
					c-0.1,0.1-0.2,0.3-0.4,0.4c-6.9,6.7-13.8,13.5-20.7,20.2c-0.6,0.6-1.2,1.1-1.8,1.6c-0.7,0.7-0.8,1.3-0.4,2.2
					c2.5,4.9,4.6,10,7,15c2.3,5,4.6,9.9,6.8,14.9c0.6,1.4,0.7,1.5-1,1.5c-7.2,0-14.5,0-21.7,0c-1.9,0-1.9,0-2.7-1.8
					c-4-9.3-8-18.7-12.1-28c-0.1-0.2-0.2-0.4-0.3-0.6c-0.1-0.1-0.2-0.2-0.3-0.2c-0.2,0-0.2,0.1-0.2,0.3c-0.3,1.1-0.5,2.2-0.8,3.3
					c-1.8,8.6-3.6,17.2-5.5,25.7c0,0.2-0.1,0.4-0.2,0.6c-0.2,0.5-0.3,0.6-0.9,0.7c-0.9,0-1.7,0-2.6,0c-5.4,0-10.9,0-16.3,0
					c-0.4,0-0.7,0-1.1,0c-0.4,0-0.6-0.3-0.5-0.7c0.3-1.4,0.6-2.7,0.9-4.1c1.9-8.7,3.7-17.5,5.6-26.2c1.8-8.6,3.7-17.2,5.5-25.9
					c1.6-7.4,3.1-14.8,4.7-22.2c0.4-1.7,0.3-1.7,2.1-1.7c6.1,0,12.2,0,18.3,0c1.3,0,1.3,0,1,1.3c-2.2,10.3-4.4,20.6-6.6,30.8
					c-1.1,5-2.1,10.1-3.2,15.1C817,89.7,816.9,90.1,817,90.7z"/>
				<path id="XMLID_100_" class="st0" d="M670,57.8c-0.5-0.2-1-0.1-1.5-0.1c-7.1,0-14.2,0-21.3,0c-0.5,0-1,0.1-1.4-0.1
					c0-0.6,0.6-0.9,0.9-1.2c2.3-2.3,4.7-4.5,7.1-6.8c0.3-0.2,0.6-0.4,0.7-0.9c-0.9-1-1.8-2.1-2.8-3.2c-0.9-1.1-1.9-2.1-2.8-3.2
					c0.3-0.3,0.7-0.2,1-0.2c17.7-0.2,70.2-0.1,71.4,0.1c-0.2,1.1-0.4,2.2-0.6,3.3c-0.8,3.6-1.6,7.3-2.3,10.9c0,0.2-0.1,0.4-0.1,0.5
					c-0.2,0.7-0.3,0.8-1,0.8c-0.4,0-0.8,0-1.2,0c-7.3,0-14.6,0-21.8,0c-1.4,0-1.5,0-1.8,1.4c-2.9,13.6-5.8,27.1-8.7,40.7
					c-1.5,7.1-3,14.2-4.5,21.3c-0.3,1.6-0.4,1.7-2,1.7c-6.3,0-12.7,0-19,0c-1.9,0-1.9,0.2-1.5-1.8c1.8-8.2,3.5-16.5,5.2-24.7
					c1.7-7.8,3.3-15.6,5-23.4c1-4.7,2-9.4,3-14C670,58.5,670.1,58.2,670,57.8z"/>
				<path id="XMLID_97_" class="st0" d="M764.6,115.6c-0.5,0.1-0.7,0.5-1,0.7c-2.5,2.7-5.4,4.8-8.8,6.2c-2.6,1.1-5.4,1.7-8.2,1.8
					c-2.7,0.1-5.5,0-8.2-0.6c-1.4-0.3-2.8-0.8-4-1.4c-3.8-2-5.9-5.1-6.3-9.3c-0.5-6.1,1.1-11.6,5-16.4c1.8-2.2,4-3.8,6.5-5.2
					c3.3-1.8,6.8-3,10.5-3.7c4.4-0.9,8.9-1.3,13.4-1.3c1.9,0,3.8,0,5.7,0c0.2,0,0.5,0,0.7,0c0.7,0,1-0.2,1.1-0.9
					c0.2-1,0.4-1.9,0.6-2.9c0.2-0.8,0.3-1.7,0.3-2.5c0-0.6,0-1.2-0.1-1.7c-0.2-1.6-1-2.7-2.6-3.2c-2.9-0.9-5.7-0.6-8.1,1.4
					c-1.6,1.3-2.7,3-3.3,5c-0.1,0.4-0.2,0.8-0.4,1.2c-0.1,0.4-0.4,0.7-0.9,0.7c-0.3,0-0.5,0-0.8,0c-5.7,0-11.3,0-17,0
					c-1.6,0-1.6,0-1.2-1.5c1.3-4.8,4-8.5,8.2-11.3c3.3-2.1,6.9-3.5,10.7-4.3c5.3-1.2,10.7-1.6,16.2-1.3c3.7,0.2,7.4,0.9,10.9,2.4
					c1.8,0.8,3.4,1.7,4.9,3.1c3.1,2.9,4.3,6.4,3.5,10.6c-0.7,3.9-1.6,7.7-2.4,11.6c-1.3,6.3-2.7,12.6-4,18.9
					c-0.4,1.9-0.5,3.8-0.7,5.7c-0.1,1.5-0.3,2.9-0.4,4.4c-0.1,1.2-0.1,1.2-1.3,1.2c-6,0-12,0-17.9,0c-1.3,0-1.4-0.1-1.3-1.4
					c0.2-1.5,0.4-3,0.8-4.5C764.6,116.4,764.7,116,764.6,115.6z M764.7,96.1C764.7,96.1,764.7,96.1,764.7,96.1c-1,0.1-2,0-3,0.1
					c-3.5,0.2-6.6,1.4-9.3,3.7c-2.1,1.8-3.2,4.1-3.1,6.8c0.1,3.2,2.5,5.1,4.9,5.4c3.2,0.3,6-0.5,8.4-2.7c1.3-1.2,2.3-2.6,3.1-4.2
					c0.8-1.7,1.5-3.5,1.9-5.3c0.3-1.1,0.5-2.3,0.8-3.4c0.1-0.3-0.1-0.4-0.3-0.4C767,96.1,765.9,96.1,764.7,96.1z"/>
				<path id="XMLID_96_" class="st0" d="M492.6,112.7c0.1-0.5,0.4-1,0.7-1.5c2.6-4.3,4.7-8.8,6.3-13.6c1.4-4.1,2.3-8.3,2.9-12.5
					c0.6-4.4,0.6-8.7,0.4-13.1c-0.1-1.4-0.3-2.8-0.4-4.1c0-0.4,0-0.9,0-1.3c6.5,0,13,0,19.5,0c0.2,0.4,0.1,0.7,0,1
					c-2.3,10.6-4.5,21.2-6.8,31.8c-0.5,2.1-0.5,4.3-0.4,6.4c0,0.5,0.1,1,0.3,1.4c0.7,2.1,2.1,3.4,4.3,3.7c4.4,0.5,8-0.9,10.6-4.7
					c1.1-1.7,1.9-3.6,2.3-5.6c1.3-6.1,2.6-12.2,3.8-18.3c1-4.8,2-9.5,3.1-14.3c0-0.2,0.1-0.4,0.2-0.7c0.2-0.7,0.4-0.8,1-0.8
					c0.7,0,1.3,0,2,0c5.6,0,11.2,0,16.9,0c0.5,0,1-0.1,1.4,0.1c0.1,0.4,0,0.8-0.1,1.2c-1,4.8-2,9.5-3,14.3
					c-1.6,7.4-3.2,14.9-4.7,22.3c-0.7,3.2-1.3,6.3-2,9.5c-0.4,2.1-0.7,4.3-1,6.5c-0.1,0.5-0.1,1.1-0.2,1.6c-0.1,0.5-0.2,0.6-0.7,0.6
					c-0.3,0-0.5,0-0.8,0c-6.2,0-12.3,0-18.5,0c-0.2,0-0.4,0-0.5,0c-1.1,0-1.2-0.1-1-1.3c0.1-0.8,0.3-1.7,0.4-2.5
					c0.1-0.6,0.1-1.1,0.2-1.7c-0.5-0.1-0.7,0.1-0.9,0.3c-1.1,1-2.4,1.9-3.7,2.7c-3.1,2-6.5,3.3-10.1,3.8c-2.2,0.3-4.5,0.4-6.7,0.2
					c-2.6-0.2-5-0.9-7.4-2c-3.6-1.8-5.9-4.6-7-8.4C492.8,113.5,492.7,113.1,492.6,112.7z"/>
				<path id="XMLID_95_" class="st0" d="M707.9,66.5c3,0,5.9,0,8.9,0c0.3,0,0.6,0,0.9,0c0.7,0,0.8,0.1,0.7,0.9
					c0,0.2-0.1,0.4-0.1,0.7c-0.4,2.4-0.9,4.8-1.3,7.3c0,0.2-0.1,0.3-0.1,0.5c0,0.1,0,0.3,0.2,0.3c0.1,0,0.2,0,0.2-0.1
					c0.2-0.2,0.3-0.5,0.4-0.7c0.5-0.8,0.9-1.5,1.5-2.3c3-4.1,7-6.6,11.9-7.7c1.9-0.4,3.8-0.6,5.8-0.6c0.3,0,0.6,0,0.9,0
					c0.3,0,0.4,0.2,0.4,0.4c0,0.3,0,0.6-0.1,0.9c-1.1,5-2.1,10.1-3.2,15.1c-0.4,1.7-0.2,1.5-1.9,1.5c-1.5,0-3,0-4.4,0
					c-1.7,0-3.4,0.4-5,0.9c-3.3,1.1-5.9,3.1-7.8,5.9c-1.5,2.2-2.6,4.7-3.2,7.3c-0.6,2.3-1.1,4.7-1.6,7.1c-1.2,5.7-2.4,11.4-3.6,17.1
					c-0.3,1.5-0.4,1.6-2,1.6c-6.1,0-12.2,0-18.3,0c-1.5,0-1.4,0.1-1.2-1.4c0.2-1.3,0.6-2.6,0.8-3.9c2-9.2,3.9-18.4,5.9-27.6
					c0.9-4.4,1.9-8.7,2.8-13.1c0.6-2.7,1-5.4,1.3-8.1c0-0.3,0.1-0.6,0.1-0.9c0.2-1.1,0.2-1.1,1.4-1.2
					C701.5,66.5,704.7,66.5,707.9,66.5L707.9,66.5z"/>
				<path id="XMLID_94_" class="st0" d="M588.5,66.7c0.1,0.6,0,1.2-0.1,1.8c-1.9,8.7-3.7,17.3-5.6,26c-1.6,7.3-3.1,14.6-4.7,21.9
					c-0.3,1.5-0.7,3.1-1,4.6c0,0.2-0.1,0.4-0.1,0.5c-0.3,1.1-0.4,1.2-1.5,1.2c-6.3,0-12.7,0-19,0c-0.3,0-0.6,0-0.9-0.1
					c-0.1-0.4,0-0.7,0.1-1.1c1.3-6,2.6-12.1,3.9-18.1c1.6-7.4,3.1-14.7,4.7-22.1c0.9-4.4,1.9-8.8,2.8-13.1c0.1-0.3,0.1-0.6,0.2-0.9
					c0.2-0.6,0.4-0.7,0.9-0.8c0.3,0,0.5,0,0.8,0c6.1,0,12.2,0,18.3,0C587.7,66.5,588.1,66.4,588.5,66.7z"/>
				<path id="XMLID_93_" class="st0" d="M594,42.2c-0.1,0.4-0.1,0.9-0.2,1.3c-0.9,4.2-1.8,8.3-2.6,12.5c0,0.2-0.1,0.4-0.1,0.5
					c-0.2,0.7-0.4,0.9-1.1,0.9c-0.2,0-0.4,0-0.5,0c-6.4,0-12.8,0-19.1,0c-1.8,0-1.5-0.1-1.2-1.4c0.9-4.3,1.8-8.6,2.7-12.8
					c0-0.1,0.1-0.3,0.1-0.4c0.1-0.4,0.4-0.7,0.8-0.7c0.3,0,0.5,0,0.8,0c6.4,0,12.8,0,19.3,0C593.2,42,593.6,41.9,594,42.2z"/>
				<path id="XMLID_92_" class="st1" d="M632.8,57.7c-1.9,0-3.8,0-5.7,0c-0.3,0-0.5,0-0.8,0c-0.2,0-0.3-0.3-0.2-0.5
					c0.2-0.2,0.4-0.4,0.6-0.6c2.3-2.2,4.6-4.5,6.9-6.7c0.2-0.2,0.3-0.3,0.5-0.5c0.6-0.6,0.6-0.7,0-1.3c-1.4-1.7-2.9-3.3-4.3-4.9
					c-0.2-0.3-0.7-0.5-0.5-0.9c0.2-0.5,0.7-0.3,1.1-0.3c3.6,0,7.2,0,10.8,0c0.3,0,0.6,0,0.9,0c0.7,0,1.3,0.2,1.8,0.8
					c1.5,1.7,3,3.4,4.5,5.1c0.1,0.2,0.3,0.4,0.4,0.5c0.1,0.2,0.1,0.4,0,0.6c-0.2,0.2-0.4,0.5-0.6,0.7c-2.4,2.4-4.9,4.7-7.3,7.1
					c-0.6,0.6-1.3,0.9-2.2,0.9C636.7,57.7,634.8,57.7,632.8,57.7z"/>
				<g>
					<path id="XMLID_91_" class="st1" d="M515.6,171.6c-2.5-0.8-5.1-1.5-7.6-2.3c-21.6-6.6-43.3-13.1-64.9-19.7
						c-10-3.1-20.1-6.1-30.1-9.2c-6.7-2.1-12.8-5.4-18.4-9.6c-7.7-5.8-14.1-12.9-18.9-21.3c-3.7-6.5-6.2-13.5-7.6-20.9
						c-0.4-2.3-0.8-4.6-0.9-6.9c0-0.2,0-0.4-0.1-0.5c-0.4-1.2-0.4-2.5-0.4-3.7c0-1,0-2.1,0-3.1c0-0.9,0.1-1.8,0.3-2.7
						c0.2-1,0.3-2,0.4-3.1c0.3-3.5,1.1-6.8,2-10.1c2.1-7.5,5.3-14.6,9.7-21c5.4-7.9,12.4-14.1,20.6-19.1c4.9-3,10.1-5.5,15.6-7.1
						c3.8-1.1,7.7-1.9,11.6-2.3c0.8-0.1,1.7-0.2,2.5-0.4c0.9-0.2,1.9-0.1,2.8-0.1c1.8,0,3.6-0.1,5.4,0c2,0.1,4,0.3,6,0.6
						c3.6,0.5,7.3,1.2,10.8,2.3c16.9,5.2,29.9,15.4,39,30.4c4.2,6.9,7,14.3,8.4,22.2c0.2,0.9,0.4,1.8,0.6,2.6c0,0.4,0,0.9,0,1.3
						c0.1,1.4,0.3,2.8,0.4,4.1c0.2,4.4,0.2,8.8-0.4,13.1c-0.6,4.3-1.5,8.4-2.9,12.5c-1.6,4.8-3.7,9.3-6.3,13.6
						c-0.3,0.5-0.6,0.9-0.7,1.5c-0.4,0.2-0.6,0.6-0.9,1c-1.2,1.6-2.3,3.2-3.5,4.8c-0.1,0.1-0.2,0.2-0.2,0.3
						c-0.3,0.3-0.6,0.5-1.1,0.3c0,0-0.1,0-0.1-0.1c-1.8-0.7-3.6-1.4-5.4-2c-0.1,0-0.2-0.1-0.2-0.1c-0.2-0.1-0.3-0.3-0.2-0.6
						c0.2-0.3,0.4-0.5,0.6-0.7c5.4-6.3,9.4-13.4,11.8-21.4c1.2-3.8,1.9-7.7,2.3-11.7c0.4-3.8,0.5-7.5,0.2-11.3
						c-0.5-6.4-1.9-12.6-4.6-18.6c-4.9-11-12.1-20.1-22.1-26.9c-6.2-4.3-13-7.1-20.3-8.8c-4.9-1.1-9.8-1.7-14.8-1.6
						c-10,0.1-19.5,2.5-28.3,7.4C390.6,31.3,380.6,44,376,60.7c-1.7,6.2-2.4,12.5-2,18.9c1.1,16.8,8.1,30.9,20.6,42.2
						c5.8,5.2,12.4,9.1,19.7,11.7c10.6,3.8,21,7.8,31.6,11.7c22.7,8.4,45.5,16.8,68.2,25.3c0.5,0.2,1,0.4,1.5,0.6
						C515.6,171.3,515.6,171.4,515.6,171.6z"/>
					<path id="XMLID_90_" class="st1" d="M530.7,165c-0.7-0.1-1.3-0.3-1.9-0.5c-2.4-0.8-4.8-1.5-7.2-2.3
						c-27.3-8.5-54.6-17-81.9-25.5c-7-2.2-14.1-4.4-21.1-6.6c-1.9-0.6-3.7-1.3-5.6-2c-6-2.4-11.2-5.9-16-10.1
						c-9-7.9-14.6-17.8-17.2-29.4c-1.3-5.7-1.7-11.5-1.2-17.4c0.7-8.3,3.1-16.1,7.3-23.2c7.8-13.1,19-21.9,33.8-26
						c4.1-1.2,8.3-1.8,12.6-2.1c13.8-0.9,26,3.2,36.8,11.5c5.4,4.2,10.1,9,13.8,14.8c3.8,6,6.3,12.4,7.6,19.4c0.7,3.8,1,7.5,1,11.4
						c-0.1,11-3.2,21-9.2,30.1c-1.5,2.3-3.2,4.4-5,6.5c-0.2,0.3-0.5,0.5-0.7,0.8c-0.4,0.5-0.8,0.6-1.4,0.4c-1.9-0.7-3.8-1.4-5.7-2.1
						c-0.5-0.2-0.5-0.4-0.2-0.8c0.8-0.9,1.7-1.7,2.5-2.6c5.7-6.3,9.7-13.7,11.5-22c1.1-4.9,1.4-9.9,1-14.9
						c-1.5-19.2-14.4-36.2-33.3-42.7c-5.9-2-12-2.9-18.3-2.6c-20.5,0.8-39,14.7-45.2,34.9c-1.6,5.3-2.3,10.7-2.1,16.3
						c0.6,19.2,12.8,37.5,32.9,44.7c7.7,2.8,15.3,5.7,23,8.5c29.2,10.8,58.4,21.7,87.6,32.5c0.6,0.2,1.2,0.5,1.9,0.8
						C530.7,164.7,530.7,164.9,530.7,165z"/>
					<path id="XMLID_89_" class="st1" d="M545.6,158.4c-3.7-1.2-7.5-2.3-11.2-3.5c-25.5-8-50.9-16.1-76.4-24.1
						c-12.3-3.9-24.6-7.8-36.9-11.8c-5.3-1.7-10.2-4.2-14.6-7.6c-6-4.7-10.3-10.6-13.1-17.6c-1.6-3.9-2.6-8-3.2-12.2
						c-1.8-14.4,3.5-28.5,14.1-38.2c6.3-5.8,13.6-9.4,22-11.1c4.7-0.9,9.4-1.1,14.1-0.6c18.3,2.2,33.1,14.9,38,32.5
						c1.5,5.5,2.1,11.2,1.6,16.9c-0.5,5.4-2,10.4-4.5,15.2c-2.7,5.1-6.2,9.5-10.4,13.5c-0.7,0.6-1.3,0.8-2.2,0.5
						c-1.9-0.7-3.9-1.5-5.8-2.2c-0.2-0.1-0.3-0.1-0.4-0.3c0.1-0.5,0.6-0.7,0.9-0.9c2.7-2.1,5.2-4.4,7.3-7.1
						c3.9-4.9,6.3-10.5,7.5-16.6c0.7-3.6,0.8-7.2,0.5-10.8c-0.7-6.2-2.7-11.9-6.3-17.1c-6.1-8.8-14.4-14.3-24.9-16.2
						c-18.9-3.5-37.6,7.8-43.2,26.5c-1.3,4.5-1.9,9-1.6,13.7c0.6,7.8,3.3,14.7,8.2,20.8c4,5,9,8.7,14.9,11.3c3.8,1.6,7.7,3,11.6,4.4
						c10.9,4,21.8,8.1,32.7,12.1c26.5,9.8,53,19.6,79.6,29.5c0.6,0.2,1.2,0.4,1.7,0.7C545.6,158,545.6,158.2,545.6,158.4z"/>
					<path id="XMLID_88_" class="st1" d="M561.5,152c-1.1-0.3-2.2-0.6-3.2-1c-27.9-8.9-55.8-17.9-83.7-26.8
						c-16.8-5.4-33.6-10.8-50.4-16.2c-5.1-1.7-9.7-4.3-13.4-8.2c-3.4-3.6-5.8-7.8-7.5-12.5c-1.7-4.7-2.3-9.6-1.7-14.5
						c0.8-7.5,3.9-14,9.1-19.5c5.2-5.5,11.5-8.8,19-10c17.5-2.8,33.2,8,37.7,23.7c1,3.5,1.5,7.1,1.3,10.7
						c-0.8,11.6-6.1,20.7-15.9,27.1c-0.3,0.2-0.5,0.3-0.8,0.5c-0.6,0.3-1.2,0.4-1.8,0.2c-2.7-1-5.4-2.1-8.2-3.1c0,0-0.1-0.1-0.1-0.1
						c0.2-0.4,0.6-0.4,1-0.5c3.3-1,6.2-2.5,8.9-4.7c5.4-4.4,8.7-10,9.7-16.8c1.8-11.4-4.2-21.9-13.4-27c-3.9-2.2-8-3.2-12.5-3.3
						c-12.2-0.2-23.4,8.2-26.4,20.6c-3,12.9,4.6,26.3,16.7,30.7c8.8,3.2,17.5,6.5,26.3,9.7c28.1,10.4,56.2,20.8,84.3,31.3
						c8.1,3,16.2,6,24.4,9c0.3,0.1,0.5,0.2,0.7,0.3C561.5,151.7,561.5,151.8,561.5,152z"/>
					<path id="XMLID_87_" class="st1" d="M396.6,144.1c-4.2,0-8.4,0-12.5,0c-1.7,0-1.7,0-1.7-1.7c0-1.2,0-2.4,0-3.6
						c0-0.3,0-0.6,0-0.9c0-0.4,0.3-0.6,0.6-0.6c0.3,0,0.6,0,0.9,0c4.2,0,8.4,0,12.5,0c1.1,0,2,0.2,2.9,0.8c3.2,1.9,6.6,3.5,10.1,4.8
						c0.3,0.1,0.7,0.3,1,0.5c0.1,0.1,0.2,0.3,0.1,0.5c-0.1,0.1-0.1,0.2-0.3,0.3c-0.3,0.2-0.7,0.1-1.1,0.1c-3,0-6,0-9,0
						C399,144.1,397.8,144.1,396.6,144.1z"/>
					<path id="XMLID_86_" class="st1" d="M390.6,132.7c-2.4,0-4.9,0-7.4,0c-0.6,0-0.8-0.2-0.9-0.8c0-1.7,0-3.5,0-5.2
						c0-0.2,0.1-0.4,0.1-0.5c0.1-0.4,0.6-0.6,1-0.4c0.2,0.1,0.5,0.3,0.7,0.5c2.1,2,4.2,3.9,6.3,5.9
						C390.6,132.2,390.8,132.4,390.6,132.7z"/>
				</g>
			</g>
		</g>
		<g>
			<g>
				<path class="st0" d="M631.7,140.8c0,1.2-0.4,2.1-1.3,2.8c-0.8,0.7-2,1-3.5,1c-1.4,0-2.6-0.3-3.6-0.8v-2.6
					c0.9,0.4,1.6,0.7,2.2,0.8c0.6,0.2,1.1,0.2,1.6,0.2c0.6,0,1.1-0.1,1.4-0.3c0.3-0.2,0.5-0.6,0.5-1c0-0.3-0.1-0.5-0.2-0.7
					s-0.3-0.4-0.6-0.6s-0.8-0.5-1.7-0.9c-0.8-0.4-1.4-0.7-1.8-1.1c-0.4-0.3-0.7-0.7-0.9-1.2c-0.2-0.5-0.4-1-0.4-1.6
					c0-1.2,0.4-2.1,1.2-2.7c0.8-0.7,1.8-1,3.2-1c0.7,0,1.3,0.1,1.9,0.2c0.6,0.2,1.2,0.4,1.9,0.7l-0.9,2.1c-0.7-0.3-1.3-0.5-1.7-0.6
					c-0.4-0.1-0.9-0.2-1.3-0.2c-0.5,0-0.9,0.1-1.2,0.4s-0.4,0.6-0.4,1c0,0.2,0.1,0.5,0.2,0.6c0.1,0.2,0.3,0.4,0.5,0.5
					c0.2,0.2,0.8,0.5,1.7,0.9c1.2,0.6,2,1.2,2.5,1.8C631.4,139.3,631.7,140,631.7,140.8z"/>
				<path class="st0" d="M641.4,144.4H634v-13h7.4v2.3h-4.7v2.9h4.3v2.3h-4.3v3.4h4.7V144.4z"/>
				<path class="st0" d="M649.5,133.5c-1,0-1.8,0.4-2.4,1.2c-0.6,0.8-0.8,1.9-0.8,3.3c0,2.9,1.1,4.4,3.2,4.4c0.9,0,2-0.2,3.3-0.7
					v2.3c-1.1,0.4-2.2,0.7-3.5,0.7c-1.9,0-3.3-0.6-4.3-1.7c-1-1.2-1.5-2.8-1.5-5c0-1.4,0.2-2.5,0.7-3.6s1.2-1.8,2.1-2.3
					c0.9-0.5,2-0.8,3.2-0.8c1.2,0,2.5,0.3,3.8,0.9l-0.9,2.2c-0.5-0.2-1-0.4-1.4-0.6C650.5,133.6,650,133.5,649.5,133.5z"/>
				<path class="st0" d="M666,131.4v8.4c0,1-0.2,1.8-0.6,2.5c-0.4,0.7-1,1.3-1.8,1.7c-0.8,0.4-1.8,0.6-2.8,0.6
					c-1.7,0-2.9-0.4-3.8-1.3c-0.9-0.9-1.4-2-1.4-3.5v-8.4h2.7v8c0,1,0.2,1.7,0.6,2.2c0.4,0.5,1.1,0.7,2,0.7c0.9,0,1.5-0.2,1.9-0.7
					c0.4-0.5,0.6-1.2,0.6-2.2v-8H666z"/>
				<path class="st0" d="M671.8,139.4v5h-2.7v-13h3.7c1.7,0,3,0.3,3.9,1c0.8,0.6,1.3,1.6,1.3,2.9c0,0.8-0.2,1.4-0.6,2
					s-1,1.1-1.8,1.4c1.9,2.9,3.2,4.8,3.8,5.7h-3l-3.1-5H671.8z M671.8,137.2h0.9c0.9,0,1.5-0.1,1.9-0.4s0.6-0.7,0.6-1.4
					c0-0.6-0.2-1.1-0.6-1.3c-0.4-0.3-1.1-0.4-1.9-0.4h-0.8V137.2z"/>
				<path class="st0" d="M681,144.4v-13h2.7v13H681z"/>
				<path class="st0" d="M698.3,144.4h-3.5l-5.6-9.9h-0.1c0.1,1.7,0.2,3,0.2,3.7v6.1h-2.4v-13h3.4l5.6,9.8h0.1
					c-0.1-1.7-0.1-2.9-0.1-3.6v-6.2h2.4V144.4z"/>
				<path class="st0" d="M706.4,137.1h5.1v6.8c-0.8,0.3-1.6,0.5-2.3,0.6c-0.7,0.1-1.5,0.2-2.2,0.2c-1.9,0-3.4-0.6-4.4-1.7
					s-1.5-2.8-1.5-5c0-2.1,0.6-3.7,1.8-4.9c1.2-1.2,2.8-1.8,4.9-1.8c1.3,0,2.6,0.3,3.8,0.8l-0.9,2.2c-0.9-0.5-1.9-0.7-2.9-0.7
					c-1.2,0-2.1,0.4-2.8,1.2c-0.7,0.8-1.1,1.9-1.1,3.2c0,1.4,0.3,2.5,0.9,3.2s1.4,1.1,2.5,1.1c0.6,0,1.1-0.1,1.7-0.2v-2.7h-2.4
					V137.1z"/>
				<path class="st0" d="M728.1,135.5c0,1.4-0.4,2.5-1.3,3.2s-2.1,1.1-3.7,1.1H722v4.6h-2.7v-13h4.1c1.6,0,2.7,0.3,3.6,1
					S728.1,134.1,728.1,135.5z M722,137.5h0.9c0.8,0,1.5-0.2,1.9-0.5c0.4-0.3,0.6-0.8,0.6-1.5c0-0.6-0.2-1.1-0.5-1.4
					c-0.3-0.3-0.9-0.5-1.6-0.5H722V137.5z"/>
				<path class="st0" d="M737.9,144.4h-7.4v-13h7.4v2.3h-4.7v2.9h4.3v2.3h-4.3v3.4h4.7V144.4z"/>
				<path class="st0" d="M748.5,144.4l-0.9-3.1h-4.7l-0.9,3.1H739l4.5-13.1h3.3l4.5,13.1H748.5z M746.9,139
					c-0.9-2.8-1.3-4.4-1.5-4.8c-0.1-0.4-0.2-0.7-0.2-0.9c-0.2,0.8-0.7,2.6-1.7,5.6H746.9z"/>
				<path class="st0" d="M758.5,133.5c-1,0-1.8,0.4-2.4,1.2c-0.6,0.8-0.8,1.9-0.8,3.3c0,2.9,1.1,4.4,3.2,4.4c0.9,0,2-0.2,3.3-0.7
					v2.3c-1.1,0.4-2.2,0.7-3.5,0.7c-1.9,0-3.3-0.6-4.3-1.7s-1.5-2.8-1.5-5c0-1.4,0.2-2.5,0.7-3.6c0.5-1,1.2-1.8,2.1-2.3
					c0.9-0.5,2-0.8,3.2-0.8c1.2,0,2.5,0.3,3.8,0.9l-0.9,2.2c-0.5-0.2-1-0.4-1.4-0.6C759.4,133.6,758.9,133.5,758.5,133.5z"/>
				<path class="st0" d="M771.9,144.4h-7.4v-13h7.4v2.3h-4.7v2.9h4.3v2.3h-4.3v3.4h4.7V144.4z"/>
				<path class="st0" d="M790.9,137.9c0,2.2-0.5,3.8-1.6,5s-2.6,1.7-4.5,1.7s-3.5-0.6-4.5-1.7s-1.6-2.8-1.6-5c0-2.2,0.5-3.8,1.6-5
					c1.1-1.1,2.6-1.7,4.5-1.7c2,0,3.5,0.6,4.5,1.7S790.9,135.7,790.9,137.9z M781.5,137.9c0,1.5,0.3,2.6,0.8,3.3
					c0.5,0.7,1.4,1.1,2.4,1.1c2.2,0,3.3-1.5,3.3-4.4c0-2.9-1.1-4.4-3.2-4.4c-1.1,0-1.9,0.4-2.4,1.1S781.5,136.4,781.5,137.9z"/>
				<path class="st0" d="M796.2,144.4h-2.7v-13h7.4v2.3h-4.7v3.4h4.4v2.3h-4.4V144.4z"/>
				<path class="st0" d="M813.5,144.4l-3.1-10.2h-0.1c0.1,2.1,0.2,3.5,0.2,4.2v6.1h-2.4v-13h3.7l3,10h0.1l3.2-10h3.7v13h-2.5v-6.2
					c0-0.3,0-0.6,0-1c0-0.4,0-1.4,0.1-3h-0.1l-3.3,10.2H813.5z"/>
				<path class="st0" d="M825,144.4v-13h2.7v13H825z"/>
				<path class="st0" d="M842.4,144.4h-3.5l-5.6-9.9h-0.1c0.1,1.7,0.2,3,0.2,3.7v6.1H831v-13h3.4l5.6,9.8h0.1
					c-0.1-1.7-0.1-2.9-0.1-3.6v-6.2h2.4V144.4z"/>
				<path class="st0" d="M856.3,137.8c0,2.1-0.6,3.8-1.8,4.9s-2.9,1.7-5.2,1.7h-3.6v-13h4c2.1,0,3.7,0.6,4.9,1.7
					C855.7,134.2,856.3,135.8,856.3,137.8z M853.4,137.9c0-2.8-1.2-4.2-3.7-4.2h-1.4v8.5h1.2C852.1,142.2,853.4,140.7,853.4,137.9z"
					/>
			</g>
		</g>
	</g>
	<g>
		<path class="st0" d="M20.9,94l-2.4,13.6h-7.8L17.5,69L31,69c4.2,0,7.5,1.2,9.8,3.5c2.4,2.3,3.4,5.3,3.1,9.1
			c-0.3,3.8-1.9,6.8-4.7,9.1c-2.9,2.3-6.5,3.4-11,3.4L20.9,94z M22,87.6l6.5,0.1c2.1,0,3.8-0.5,5.2-1.6c1.4-1.1,2.2-2.5,2.5-4.4
			s0-3.3-0.9-4.4c-0.9-1.1-2.1-1.7-3.8-1.8l-7.3,0L22,87.6z"/>
		<path class="st0" d="M60.5,108.2c-2.6-0.1-4.8-0.7-6.8-1.8c-2-1.2-3.5-2.8-4.6-5c-1.1-2.2-1.8-4.7-2-7.5c-0.2-2.9,0.1-6,0.9-9.3
			c0.8-3.3,2.1-6.2,3.9-8.7s3.9-4.4,6.4-5.6c2.4-1.2,5.1-1.8,7.9-1.8c2.6,0.1,4.9,0.7,6.8,1.8c1.9,1.2,3.5,2.9,4.6,5.1
			c1.1,2.2,1.8,4.7,1.9,7.5c0.2,3.1-0.2,6.3-1,9.6c-0.8,3.3-2.2,6.1-4,8.5c-1.8,2.4-3.9,4.2-6.3,5.4
			C65.9,107.6,63.3,108.2,60.5,108.2z M71.5,87.3l0.2-2.5c0.2-3.1-0.2-5.5-1.3-7.2c-1-1.6-2.6-2.5-4.6-2.5c-3.2-0.1-5.8,1.3-7.7,4.3
			c-1.9,3-3,7.1-3.2,12.5c-0.2,3.1,0.2,5.5,1.2,7.2s2.6,2.6,4.7,2.6c2.8,0.1,5.1-1,6.9-3.2c1.8-2.3,3-5.5,3.6-9.7L71.5,87.3z"/>
		<path class="st0" d="M112.8,96.4l9.3-27.4h7.9l-14.3,38.6h-7.8l-2-25.7l-10.1,25.7h-7.8L85.6,69h7.6L94,96.3L104.4,69h6.6
			L112.8,96.4z"/>
		<path class="st0" d="M153.5,90.8h-14.8l-1.8,10.4h17.4l-1.1,6.4H128l6.7-38.6h25.1l-1.1,6.4h-17.3l-1.6,9.2h14.9L153.5,90.8z"/>
		<path class="st0" d="M174.4,93.5h-6.3l-2.5,14.1h-7.8l6.7-38.6l12.8,0c4.3,0,7.6,1,9.9,3c2.3,2,3.3,4.8,3.1,8.4
			c-0.4,5.3-3.2,9-8.5,11.1l5.4,15.7v0.4H179L174.4,93.5z M169.3,87l5.8,0.1c2.1,0,3.7-0.6,5.1-1.7c1.3-1.1,2.1-2.5,2.4-4.4
			c0.2-1.7,0-3.1-0.8-4c-0.8-1-2.1-1.5-3.8-1.6l-6.6,0L169.3,87z"/>
		<path class="st0" d="M217.3,90.8h-14.8l-1.8,10.4h17.4l-1.1,6.4h-25.2l6.7-38.6h25.1l-1.1,6.4h-17.3l-1.6,9.2h14.9L217.3,90.8z"/>
		<path class="st0" d="M221.7,107.6l6.7-38.6l11.1,0c2.6,0.1,4.9,0.6,7,1.8c2.1,1.1,3.8,2.7,5.1,4.8c1.3,2.1,2.1,4.5,2.3,7.1
			c0.1,1.5,0.1,3.1-0.1,4.7l-0.2,1.4c-0.8,5.7-3,10.2-6.7,13.6s-8.1,5.1-13.4,5.1H221.7z M235.1,75.4l-4.5,25.8l3.2,0
			c3.6,0,6.4-1.3,8.6-3.9c2.2-2.6,3.4-6.6,3.7-11.9l0.1-0.8c0.1-2.9-0.5-5.2-1.7-6.7s-2.9-2.4-5.2-2.4L235.1,75.4z"/>
		<path class="st0" d="M269.6,107.6l6.7-38.6l12,0c4.5,0,7.8,0.9,10.1,2.7c2.2,1.8,3.3,4.3,3.1,7.6c-0.2,3.9-2.5,6.8-6.8,8.6
			c1.5,0.5,2.7,1.5,3.6,3s1.2,3.2,1.1,5.2c-0.2,3.6-1.7,6.5-4.3,8.5c-2.6,2-6.2,3-10.7,3H269.6z M280.3,90.8l-1.8,10.4l6.1,0
			c1.9,0,3.5-0.5,4.8-1.4c1.3-0.9,2.1-2.2,2.3-3.8c0.2-1.6,0-2.8-0.6-3.7c-0.7-0.9-1.8-1.4-3.4-1.4L280.3,90.8z M281.3,85.2l5.3,0.1
			c2,0,3.6-0.5,4.8-1.4c1.2-0.9,2-2.1,2.2-3.7c0.4-3.1-1.2-4.7-4.9-4.7l-5.7,0L281.3,85.2z"/>
		<path class="st0" d="M318.4,86.4L329.2,69h8.9l-16.9,25l-2.3,13.6H311l2.5-14.5l-8-24.1l8.2,0L318.4,86.4z"/>
	</g>
</g>
</svg>
