<?xml version="1.0" encoding="utf-8"?>
<!-- Generator: Adobe Illustrator 22.1.0, SVG Export Plug-In . SVG Version: 6.00 Build 0)  -->
<svg version="1.1" id="Слой_1" xmlns="http://www.w3.org/2000/svg" xmlns:xlink="http://www.w3.org/1999/xlink" x="0px" y="0px"
	 viewBox="0 0 416 144" style="enable-background:new 0 0 416 144;" xml:space="preserve">
<style type="text/css">
	.st0{fill:#1A1A1A;}
	.st1{fill:#E3072B;}
	.st2{fill:#808080;}
</style>
<g>
	<g>
		<g>
			<path id="XMLID_104_" class="st0" d="M213.1,33.5c-0.2,1.1-0.4,2.2-0.7,3.3c-1.3,6.3-2.7,12.7-4.1,19c-1.1,5.2-2.2,10.5-3.4,15.7
				c-0.1,0.3-0.1,0.6-0.1,0.9c0,0.1,0,0.2,0.1,0.2c0.1,0,0.2,0,0.2,0c0.2-0.2,0.4-0.3,0.6-0.5c5.8-5.8,11.5-11.6,17.3-17.4
				c0.2-0.2,0.5-0.5,0.7-0.7c0.6-0.6,1.3-0.8,2.1-0.8c1.8,0,3.6,0,5.4,0c3.6,0,7.2,0,10.8,0c0.3,0,0.6-0.2,0.8,0.1
				c0.2,0.4-0.2,0.5-0.5,0.7c-4.8,4.7-9.5,9.3-14.3,14c-1.2,1.1-2.3,2.3-3.5,3.4c-0.8,0.8-0.8,0.7-0.3,1.6
				c3.4,7.5,6.8,14.9,10.3,22.4c0.3,0.8,0.7,1.5,1,2.3c0.2,0.5,0.2,0.6-0.4,0.6c-0.1,0-0.3,0-0.4,0c-5.9,0-11.8,0-17.7,0
				c-1.5,0-1.5,0-2.1-1.4c-3.2-7.5-6.5-15.1-9.7-22.6c-0.1-0.1-0.1-0.3-0.2-0.4c-0.1-0.1-0.1-0.2-0.2-0.2c-0.2,0-0.2,0.1-0.2,0.2
				c-0.2,1.1-0.5,2.1-0.7,3.2c-1.4,6.7-2.9,13.4-4.3,20.1c0,0.2-0.1,0.4-0.1,0.6c-0.1,0.3-0.3,0.6-0.7,0.5c-0.3,0-0.5,0-0.8,0
				c-4.8,0-9.7,0-14.5,0c-1.4,0-1.3-0.1-1-1.3c1.8-8.4,3.6-16.7,5.4-25.1c2.1-10,4.2-20,6.4-30c0.5-2.4,1-4.9,1.6-7.3
				c0-0.2,0.1-0.3,0.1-0.5c0.2-0.7,0.2-0.8,0.9-0.8c0.2,0,0.4,0,0.7,0c4.8,0,9.6,0,14.4,0C212.2,33.4,212.7,33.3,213.1,33.5z"/>
			<path id="XMLID_103_" class="st0" d="M370,72.6c0.6-0.3,1-0.7,1.3-1.1c5.8-5.8,11.5-11.6,17.3-17.4c0.1-0.1,0.2-0.2,0.2-0.2
				c0.5-0.6,1.1-0.7,1.8-0.7c3.4,0,6.9,0,10.3,0c2.1,0,4.1,0,6.2,0c0.2,0,0.4,0,0.6,0c0.1,0,0.2,0.2,0.1,0.3
				c-0.1,0.1-0.2,0.2-0.3,0.3c-5.5,5.4-11.1,10.9-16.6,16.3c-0.5,0.5-1,0.9-1.4,1.3c-0.6,0.6-0.7,1-0.3,1.7c2,4,3.7,8,5.6,12
				c1.9,4,3.7,8,5.5,12c0.5,1.1,0.6,1.2-0.8,1.2c-5.8,0-11.6,0-17.5,0c-1.5,0-1.6,0-2.2-1.4c-3.2-7.5-6.5-15-9.7-22.5
				c-0.1-0.2-0.1-0.3-0.2-0.5c-0.1-0.1-0.1-0.2-0.2-0.2c-0.1,0-0.1,0.1-0.2,0.2c-0.2,0.9-0.4,1.7-0.6,2.6
				c-1.5,6.9-2.9,13.8-4.4,20.7c0,0.2-0.1,0.4-0.1,0.5c-0.1,0.4-0.2,0.5-0.7,0.5c-0.7,0-1.4,0-2.1,0c-4.4,0-8.7,0-13.1,0
				c-0.3,0-0.6,0-0.9,0c-0.4,0-0.5-0.2-0.4-0.6c0.2-1.1,0.5-2.2,0.7-3.3c1.5-7,3-14.1,4.5-21.1c1.5-6.9,3-13.9,4.4-20.8
				c1.3-5.9,2.5-11.9,3.8-17.8c0.3-1.4,0.3-1.4,1.7-1.4c4.9,0,9.8,0,14.7,0c1,0,1,0,0.8,1c-1.8,8.3-3.5,16.5-5.3,24.8
				c-0.9,4-1.7,8.1-2.6,12.1C370,71.7,370,72.1,370,72.6z"/>
			<path id="XMLID_102_" class="st0" d="M251.8,46.1c-0.4-0.2-0.8-0.1-1.2-0.1c-5.7,0-11.4,0-17.1,0c-0.4,0-0.8,0.1-1.2-0.1
				c0-0.5,0.4-0.7,0.7-1c1.9-1.8,3.8-3.6,5.7-5.5c0.2-0.2,0.5-0.3,0.6-0.7c-0.7-0.8-1.5-1.7-2.2-2.6c-0.7-0.9-1.5-1.7-2.2-2.6
				c0.3-0.2,0.5-0.2,0.8-0.2c14.3-0.1,56.4,0,57.4,0.1c-0.2,0.9-0.3,1.8-0.5,2.6c-0.6,2.9-1.3,5.8-1.9,8.8c0,0.1,0,0.3-0.1,0.4
				c-0.1,0.5-0.3,0.6-0.8,0.7c-0.3,0-0.7,0-1,0c-5.9,0-11.7,0-17.6,0c-1.1,0-1.2,0-1.4,1.2c-2.3,10.9-4.7,21.8-7,32.7
				c-1.2,5.7-2.4,11.4-3.6,17.1c-0.3,1.3-0.3,1.3-1.6,1.3c-5.1,0-10.2,0-15.3,0c-1.6,0-1.5,0.2-1.2-1.4c1.4-6.6,2.8-13.2,4.2-19.8
				c1.3-6.3,2.7-12.5,4-18.8c0.8-3.8,1.6-7.5,2.4-11.3C251.8,46.7,251.9,46.4,251.8,46.1z"/>
			<path id="XMLID_99_" class="st0" d="M327.9,92.6c-0.4,0-0.6,0.4-0.8,0.6c-2,2.2-4.4,3.9-7.1,5c-2.1,0.9-4.3,1.4-6.6,1.5
				c-2.2,0.1-4.4,0-6.6-0.5c-1.1-0.3-2.2-0.6-3.3-1.2c-3-1.6-4.8-4.1-5.1-7.4c-0.4-4.9,0.9-9.3,4-13.2c1.4-1.7,3.2-3.1,5.2-4.2
				c2.6-1.5,5.5-2.4,8.4-3c3.6-0.7,7.1-1,10.8-1.1c1.5,0,3,0,4.6,0c0.2,0,0.4,0,0.5,0c0.6,0,0.8-0.2,0.9-0.7
				c0.2-0.8,0.3-1.6,0.5-2.3c0.2-0.7,0.2-1.3,0.3-2c0-0.5,0-0.9-0.1-1.4c-0.2-1.3-0.8-2.2-2.1-2.5c-2.4-0.7-4.6-0.5-6.5,1.1
				c-1.3,1.1-2.1,2.4-2.7,4c-0.1,0.3-0.2,0.6-0.3,0.9c-0.1,0.3-0.3,0.5-0.7,0.5c-0.2,0-0.4,0-0.7,0c-4.6,0-9.1,0-13.7,0
				c-1.3,0-1.3,0-1-1.2c1-3.9,3.2-6.9,6.6-9.1c2.6-1.7,5.5-2.8,8.6-3.5c4.3-0.9,8.6-1.3,13-1.1c3,0.2,6,0.7,8.7,1.9
				c1.4,0.6,2.8,1.4,3.9,2.5c2.5,2.3,3.5,5.2,2.9,8.5c-0.6,3.1-1.3,6.2-1.9,9.3c-1.1,5.1-2.2,10.1-3.2,15.2
				c-0.3,1.5-0.4,3.1-0.6,4.6c-0.1,1.2-0.2,2.4-0.3,3.5c-0.1,0.9-0.1,0.9-1.1,0.9c-4.8,0-9.6,0-14.4,0c-1,0-1.1-0.1-1-1.1
				c0.1-1.2,0.3-2.4,0.6-3.6C327.9,93.3,328,92.9,327.9,92.6z M328,76.9C328,76.9,328,76.9,328,76.9c-0.8,0-1.6,0-2.4,0.1
				c-2.8,0.1-5.3,1.2-7.5,3c-1.7,1.4-2.6,3.3-2.5,5.5c0.1,2.6,2,4.1,3.9,4.3c2.6,0.3,4.9-0.4,6.8-2.1c1.1-1,1.8-2.1,2.5-3.4
				c0.7-1.4,1.2-2.8,1.6-4.2c0.2-0.9,0.4-1.8,0.6-2.7c0-0.2-0.1-0.3-0.3-0.3C329.8,76.9,328.9,76.9,328,76.9z"/>
			<path id="XMLID_98_" class="st0" d="M109.2,90.3c0.1-0.4,0.3-0.8,0.5-1.2c2.1-3.5,3.8-7.1,5.1-10.9c1.1-3.3,1.8-6.6,2.3-10.1
				c0.5-3.5,0.5-7,0.3-10.5c0-1.1-0.2-2.2-0.3-3.3c0-0.4,0-0.7,0-1.1c5.2,0,10.5,0,15.7,0c0.2,0.3,0.1,0.6,0,0.8
				c-1.8,8.5-3.6,17-5.4,25.5c-0.4,1.7-0.4,3.4-0.3,5.2c0,0.4,0.1,0.8,0.2,1.2c0.5,1.7,1.7,2.8,3.5,3c3.6,0.4,6.5-0.8,8.5-3.8
				c0.9-1.4,1.5-2.9,1.8-4.5c1-4.9,2.1-9.8,3.1-14.7c0.8-3.8,1.6-7.7,2.5-11.5c0-0.2,0.1-0.4,0.1-0.5c0.2-0.5,0.3-0.6,0.8-0.7
				c0.5,0,1.1,0,1.6,0c4.5,0,9,0,13.6,0c0.4,0,0.8-0.1,1.2,0.1c0.1,0.4,0,0.7-0.1,1c-0.8,3.8-1.6,7.7-2.4,11.5
				c-1.3,6-2.5,12-3.8,17.9c-0.5,2.5-1.1,5.1-1.6,7.6c-0.4,1.7-0.6,3.5-0.8,5.2c-0.1,0.4-0.1,0.9-0.2,1.3c-0.1,0.4-0.2,0.5-0.6,0.5
				c-0.2,0-0.4,0-0.7,0c-5,0-9.9,0-14.9,0c-0.1,0-0.3,0-0.4,0c-0.9,0-1-0.1-0.8-1c0.1-0.7,0.2-1.3,0.3-2c0.1-0.5,0.1-0.9,0.2-1.4
				c-0.4-0.1-0.5,0.1-0.7,0.3c-0.9,0.8-1.9,1.5-2.9,2.2c-2.5,1.6-5.2,2.6-8.2,3c-1.8,0.2-3.6,0.4-5.4,0.2c-2.1-0.2-4.1-0.7-5.9-1.6
				c-2.9-1.4-4.7-3.7-5.6-6.8C109.4,90.9,109.3,90.6,109.2,90.3z"/>
			<path id="XMLID_97_" class="st0" d="M282.4,53.1c2.4,0,4.8,0,7.2,0c0.3,0,0.5,0,0.8,0c0.6,0,0.7,0.1,0.6,0.7
				c0,0.2-0.1,0.4-0.1,0.5c-0.3,1.9-0.7,3.9-1,5.8c0,0.1-0.1,0.3-0.1,0.4c0,0.1,0,0.2,0.1,0.2c0.1,0,0.1,0,0.2-0.1
				c0.1-0.2,0.2-0.4,0.3-0.5c0.4-0.6,0.8-1.2,1.2-1.8c2.4-3.3,5.6-5.3,9.6-6.2c1.5-0.3,3.1-0.5,4.6-0.5c0.3,0,0.5,0,0.8,0
				c0.2,0,0.3,0.2,0.3,0.4c0,0.3,0,0.5-0.1,0.7c-0.9,4-1.7,8.1-2.6,12.1c-0.3,1.4-0.1,1.2-1.5,1.2c-1.2,0-2.4,0-3.6,0
				c-1.4,0-2.7,0.3-4,0.7c-2.6,0.9-4.7,2.5-6.3,4.7c-1.2,1.8-2.1,3.8-2.6,5.9c-0.5,1.9-0.9,3.8-1.3,5.7c-1,4.6-1.9,9.1-2.9,13.7
				c-0.3,1.2-0.3,1.3-1.6,1.3c-4.9,0-9.8,0-14.7,0c-1.2,0-1.1,0-0.9-1.2c0.2-1.1,0.5-2.1,0.7-3.2c1.6-7.4,3.2-14.8,4.7-22.2
				c0.7-3.5,1.5-7,2.2-10.6c0.4-2.1,0.8-4.3,1-6.5c0-0.2,0.1-0.5,0.1-0.7c0.2-0.9,0.2-0.9,1.1-0.9C277.1,53.1,279.7,53.1,282.4,53.1
				L282.4,53.1z"/>
			<path id="XMLID_96_" class="st0" d="M186.3,53.2c0.1,0.5,0,1-0.1,1.5c-1.5,7-3,13.9-4.5,20.9c-1.3,5.9-2.5,11.8-3.8,17.6
				c-0.3,1.2-0.5,2.5-0.8,3.7c0,0.1-0.1,0.3-0.1,0.4c-0.2,0.9-0.3,1-1.2,1c-5.1,0-10.2,0-15.3,0c-0.2,0-0.5,0-0.7-0.1
				c-0.1-0.3,0-0.6,0.1-0.8c1-4.9,2.1-9.7,3.1-14.6c1.3-5.9,2.5-11.8,3.8-17.7c0.8-3.5,1.5-7,2.2-10.6c0.1-0.2,0.1-0.5,0.2-0.7
				c0.1-0.5,0.3-0.6,0.7-0.6c0.2,0,0.4,0,0.7,0c4.9,0,9.8,0,14.8,0C185.6,53.1,186,53.1,186.3,53.2z"/>
			<path id="XMLID_95_" class="st0" d="M190.7,33.6c-0.1,0.3-0.1,0.7-0.2,1c-0.7,3.3-1.4,6.7-2.1,10c0,0.1-0.1,0.3-0.1,0.4
				c-0.2,0.6-0.3,0.7-0.9,0.7c-0.1,0-0.3,0-0.4,0c-5.1,0-10.3,0-15.4,0c-1.5,0-1.2-0.1-1-1.2c0.7-3.4,1.5-6.9,2.2-10.3
				c0-0.1,0-0.2,0.1-0.3c0.1-0.3,0.3-0.6,0.7-0.6c0.2,0,0.4,0,0.6,0c5.2,0,10.3,0,15.5,0C190.1,33.4,190.4,33.3,190.7,33.6z"/>
			<path id="XMLID_94_" class="st1" d="M222,46c-1.5,0-3,0-4.5,0c-0.2,0-0.4,0-0.6,0c-0.2,0-0.3-0.3-0.2-0.4
				c0.1-0.2,0.3-0.3,0.4-0.5c1.9-1.8,3.7-3.6,5.6-5.4c0.1-0.1,0.3-0.2,0.4-0.4c0.4-0.5,0.5-0.6,0-1.1c-1.2-1.3-2.3-2.6-3.5-4
				c-0.2-0.2-0.5-0.4-0.4-0.7c0.1-0.4,0.6-0.2,0.9-0.2c2.9,0,5.8,0,8.7,0c0.3,0,0.5,0,0.8,0c0.6,0,1,0.2,1.4,0.6
				c1.2,1.4,2.4,2.8,3.6,4.1c0.1,0.1,0.2,0.3,0.3,0.4c0.1,0.2,0.1,0.4,0,0.5c-0.2,0.2-0.3,0.4-0.5,0.6c-2,1.9-3.9,3.8-5.9,5.7
				c-0.5,0.5-1,0.7-1.7,0.7C225.1,46,223.5,46,222,46z"/>
			<g>
				<path id="XMLID_91_" class="st1" d="M127.7,137.6c-2-0.6-4.1-1.2-6.1-1.8c-17.4-5.3-34.8-10.6-52.2-15.9
					c-8.1-2.5-16.2-4.9-24.2-7.4c-5.4-1.7-10.3-4.3-14.8-7.7c-6.2-4.7-11.3-10.3-15.2-17.1c-3-5.3-4.9-10.9-6.1-16.8
					c-0.4-1.8-0.7-3.7-0.7-5.6c0-0.1,0-0.3-0.1-0.4c-0.3-1-0.3-2-0.3-3c0-0.8,0-1.7,0-2.5c0-0.7,0.1-1.4,0.2-2.1
					c0.2-0.8,0.2-1.6,0.3-2.5c0.2-2.8,0.9-5.5,1.6-8.1c1.7-6,4.2-11.7,7.8-16.9c4.4-6.3,10-11.4,16.5-15.3c4-2.4,8.1-4.4,12.6-5.7
					c3.1-0.9,6.2-1.5,9.3-1.9c0.7-0.1,1.4-0.2,2-0.3c0.7-0.2,1.5-0.1,2.3-0.1c1.4,0,2.9-0.1,4.3,0c1.6,0.1,3.2,0.2,4.8,0.5
					c2.9,0.4,5.8,1,8.7,1.8c13.6,4.2,24,12.4,31.4,24.4c3.4,5.5,5.6,11.5,6.8,17.9c0.1,0.7,0.3,1.4,0.4,2.1c0,0.4,0,0.7,0,1.1
					c0.1,1.1,0.3,2.2,0.3,3.3c0.1,3.5,0.1,7-0.3,10.5c-0.5,3.4-1.2,6.8-2.3,10.1c-1.3,3.8-3,7.5-5.1,10.9c-0.2,0.4-0.5,0.7-0.5,1.2
					c-0.3,0.2-0.5,0.5-0.7,0.8c-0.9,1.3-1.9,2.6-2.8,3.8c-0.1,0.1-0.1,0.2-0.2,0.3c-0.2,0.3-0.5,0.4-0.9,0.3c0,0-0.1,0-0.1,0
					c-1.5-0.5-2.9-1.1-4.4-1.6c-0.1,0-0.1-0.1-0.2-0.1c-0.2-0.1-0.3-0.3-0.1-0.4c0.1-0.2,0.3-0.4,0.5-0.6c4.3-5.1,7.6-10.8,9.5-17.2
					c0.9-3.1,1.5-6.2,1.9-9.4c0.3-3,0.4-6,0.2-9.1c-0.4-5.2-1.6-10.2-3.7-14.9c-3.9-8.8-9.7-16.1-17.7-21.6c-5-3.4-10.4-5.7-16.3-7
					c-3.9-0.9-7.9-1.4-11.9-1.3c-8.1,0.1-15.7,2-22.7,5.9c-12.3,6.8-20.3,17-24,30.5c-1.4,5-1.9,10-1.6,15.2
					c0.9,13.5,6.5,24.9,16.6,33.9c4.6,4.2,9.9,7.3,15.8,9.4c8.5,3.1,16.9,6.3,25.4,9.4c18.3,6.8,36.6,13.5,54.8,20.3
					c0.4,0.2,0.8,0.3,1.2,0.5C127.7,137.3,127.7,137.5,127.7,137.6z"/>
				<path id="XMLID_90_" class="st1" d="M139.9,132.3c-0.5-0.1-1.1-0.2-1.6-0.4c-1.9-0.6-3.8-1.2-5.8-1.8
					c-22-6.8-43.9-13.6-65.9-20.5c-5.7-1.8-11.3-3.5-17-5.3c-1.5-0.5-3-1-4.5-1.6c-4.8-1.9-9-4.7-12.8-8.1
					C25.2,88.2,20.6,80.3,18.5,71c-1-4.6-1.4-9.3-1-14c0.6-6.7,2.5-12.9,5.9-18.7c6.2-10.6,15.3-17.6,27.1-20.9
					c3.3-0.9,6.7-1.5,10.1-1.7c11.1-0.7,20.9,2.5,29.6,9.2c4.4,3.3,8.1,7.2,11.1,11.9c3.1,4.8,5.1,10,6.1,15.6
					c0.5,3,0.8,6.1,0.8,9.1c0,8.8-2.5,16.9-7.4,24.2c-1.2,1.8-2.6,3.6-4,5.2c-0.2,0.2-0.4,0.4-0.6,0.6c-0.3,0.4-0.7,0.5-1.1,0.3
					c-1.5-0.6-3-1.1-4.6-1.7c-0.4-0.1-0.4-0.4-0.1-0.6c0.7-0.7,1.4-1.4,2-2.1c4.6-5.1,7.8-11,9.2-17.7c0.9-4,1.1-8,0.8-12
					C101.4,42.3,91,28.6,75.8,23.4c-4.8-1.6-9.7-2.3-14.7-2.1c-16.5,0.6-31.4,11.8-36.3,28c-1.3,4.3-1.9,8.6-1.7,13.1
					c0.5,15.4,10.3,30.1,26.4,35.9c6.2,2.2,12.3,4.6,18.5,6.8c23.5,8.7,47,17.4,70.5,26.1c0.5,0.2,1,0.4,1.5,0.6
					C139.9,132.1,139.9,132.2,139.9,132.3z"/>
				<path id="XMLID_89_" class="st1" d="M151.8,127c-3-0.9-6-1.8-9-2.8c-20.5-6.5-41-12.9-61.4-19.4c-9.9-3.1-19.8-6.3-29.7-9.5
					c-4.3-1.4-8.2-3.4-11.7-6.1c-4.8-3.8-8.3-8.5-10.5-14.2c-1.3-3.2-2.1-6.4-2.5-9.8c-1.4-11.6,2.8-22.9,11.4-30.7
					c5-4.6,10.9-7.6,17.7-8.9c3.7-0.7,7.5-0.9,11.3-0.5c14.7,1.8,26.6,12,30.5,26.1c1.2,4.4,1.7,9,1.3,13.6
					c-0.4,4.3-1.6,8.4-3.6,12.3c-2.1,4.1-5,7.7-8.3,10.8c-0.5,0.5-1.1,0.7-1.8,0.4c-1.5-0.6-3.1-1.2-4.7-1.8c-0.1,0-0.3-0.1-0.3-0.3
					c0.1-0.4,0.4-0.5,0.7-0.7c2.2-1.7,4.2-3.6,5.9-5.7c3.1-3.9,5.1-8.4,6-13.3c0.5-2.9,0.7-5.8,0.4-8.7c-0.5-5-2.2-9.6-5-13.8
					c-4.9-7.1-11.6-11.5-20-13.1c-15.2-2.8-30.2,6.3-34.7,21.3c-1.1,3.6-1.5,7.3-1.2,11c0.5,6.2,2.7,11.8,6.6,16.7c3.2,4,7.2,7,12,9
					c3.1,1.3,6.2,2.4,9.3,3.6c8.8,3.2,17.5,6.5,26.3,9.7c21.3,7.9,42.6,15.8,64,23.7c0.5,0.2,1,0.3,1.4,0.6
					C151.8,126.7,151.8,126.8,151.8,127z"/>
				<path id="XMLID_88_" class="st1" d="M164.6,121.8c-0.9-0.3-1.7-0.5-2.6-0.8c-22.4-7.2-44.9-14.4-67.3-21.6
					c-13.5-4.3-27-8.7-40.5-13.1c-4.1-1.3-7.8-3.5-10.8-6.6c-2.8-2.9-4.7-6.3-6-10C36,66,35.6,62.1,36,58.1c0.7-6,3.1-11.3,7.3-15.7
					c4.2-4.4,9.3-7.1,15.2-8c14.1-2.2,26.7,6.5,30.3,19.1c0.8,2.8,1.2,5.7,1,8.6c-0.7,9.3-4.9,16.6-12.8,21.8
					c-0.2,0.1-0.4,0.3-0.7,0.4c-0.5,0.3-1,0.3-1.5,0.1c-2.2-0.8-4.4-1.7-6.6-2.5c0,0,0-0.1-0.1-0.1c0.1-0.3,0.5-0.3,0.8-0.4
					c2.6-0.8,5-2,7.1-3.8c4.3-3.5,7-8,7.8-13.5c1.4-9.2-3.4-17.6-10.8-21.7c-3.1-1.7-6.5-2.6-10-2.7c-9.8-0.2-18.9,6.6-21.2,16.6
					C39.6,66.7,45.7,77.4,55.5,81c7.1,2.6,14.1,5.2,21.1,7.8c22.6,8.4,45.2,16.8,67.8,25.1c6.5,2.4,13.1,4.8,19.6,7.3
					c0.2,0.1,0.4,0.2,0.6,0.2C164.6,121.6,164.6,121.7,164.6,121.8z"/>
				<path id="XMLID_87_" class="st1" d="M32,115.5c-3.4,0-6.7,0-10.1,0c-1.4,0-1.4,0-1.4-1.4c0-1,0-1.9,0-2.9c0-0.3,0-0.5,0-0.8
					c0-0.3,0.2-0.4,0.5-0.5c0.3,0,0.5,0,0.8,0c3.4,0,6.7,0,10.1,0c0.9,0,1.6,0.2,2.4,0.6c2.6,1.5,5.3,2.8,8.1,3.9
					c0.3,0.1,0.5,0.2,0.8,0.4c0.1,0.1,0.2,0.2,0.1,0.4c0,0.1-0.1,0.2-0.2,0.2c-0.3,0.1-0.6,0.1-0.9,0.1c-2.4,0-4.8,0-7.3,0
					C34,115.5,33,115.5,32,115.5z"/>
				<path id="XMLID_86_" class="st1" d="M27.2,106.3c-2,0-3.9,0-5.9,0c-0.5,0-0.7-0.2-0.7-0.6c0-1.4,0-2.8,0-4.2
					c0-0.1,0-0.3,0.1-0.4c0.1-0.3,0.5-0.5,0.8-0.3c0.2,0.1,0.4,0.2,0.5,0.4c1.7,1.6,3.4,3.2,5,4.7C27.2,106,27.4,106.1,27.2,106.3z"
					/>
			</g>
		</g>
	</g>
	<g>
		<g>
			<path class="st2" d="M221,112.9c0,0.9-0.3,1.7-1,2.2s-1.6,0.8-2.8,0.8c-1.1,0-2.1-0.2-2.9-0.6v-2.1c0.7,0.3,1.3,0.5,1.8,0.7
				c0.5,0.1,0.9,0.2,1.3,0.2c0.5,0,0.8-0.1,1.1-0.3c0.3-0.2,0.4-0.5,0.4-0.8c0-0.2-0.1-0.4-0.2-0.5s-0.3-0.3-0.5-0.5
				c-0.2-0.1-0.7-0.4-1.3-0.7c-0.6-0.3-1.1-0.6-1.4-0.9c-0.3-0.3-0.6-0.6-0.8-1c-0.2-0.4-0.3-0.8-0.3-1.3c0-0.9,0.3-1.7,0.9-2.2
				c0.6-0.5,1.5-0.8,2.6-0.8c0.5,0,1,0.1,1.5,0.2s1,0.3,1.5,0.5l-0.7,1.7c-0.6-0.2-1-0.4-1.4-0.5s-0.7-0.1-1.1-0.1
				c-0.4,0-0.7,0.1-1,0.3c-0.2,0.2-0.3,0.5-0.3,0.8c0,0.2,0,0.4,0.1,0.5s0.2,0.3,0.4,0.4c0.2,0.1,0.7,0.4,1.4,0.7
				c1,0.5,1.6,0.9,2,1.4S221,112.2,221,112.9z"/>
			<path class="st2" d="M228.8,115.8h-5.9v-10.5h5.9v1.8h-3.8v2.3h3.5v1.8h-3.5v2.7h3.8V115.8z"/>
			<path class="st2" d="M235.4,107c-0.8,0-1.5,0.3-1.9,0.9c-0.5,0.6-0.7,1.5-0.7,2.6c0,2.3,0.9,3.5,2.6,3.5c0.7,0,1.6-0.2,2.6-0.6
				v1.9c-0.8,0.4-1.8,0.5-2.8,0.5c-1.5,0-2.6-0.5-3.4-1.4s-1.2-2.3-1.2-4c0-1.1,0.2-2,0.6-2.9s1-1.4,1.7-1.9
				c0.7-0.4,1.6-0.7,2.6-0.7c1,0,2,0.2,3,0.7l-0.7,1.8c-0.4-0.2-0.8-0.3-1.2-0.5S235.8,107,235.4,107z"/>
			<path class="st2" d="M248.6,105.3v6.8c0,0.8-0.2,1.5-0.5,2c-0.3,0.6-0.8,1-1.5,1.3s-1.4,0.5-2.3,0.5c-1.3,0-2.4-0.3-3.1-1
				c-0.7-0.7-1.1-1.6-1.1-2.8v-6.8h2.2v6.4c0,0.8,0.2,1.4,0.5,1.8c0.3,0.4,0.8,0.6,1.6,0.6c0.7,0,1.2-0.2,1.6-0.6
				c0.3-0.4,0.5-1,0.5-1.8v-6.4H248.6z"/>
			<path class="st2" d="M253.3,111.8v4h-2.2v-10.5h3c1.4,0,2.4,0.3,3.1,0.8c0.7,0.5,1,1.3,1,2.4c0,0.6-0.2,1.2-0.5,1.6
				c-0.3,0.5-0.8,0.9-1.4,1.1c1.6,2.4,2.6,3.9,3,4.6H257l-2.5-4H253.3z M253.3,109.9h0.7c0.7,0,1.2-0.1,1.5-0.4
				c0.3-0.2,0.5-0.6,0.5-1.1c0-0.5-0.2-0.9-0.5-1.1c-0.3-0.2-0.9-0.3-1.6-0.3h-0.7V109.9z"/>
			<path class="st2" d="M260.7,115.8v-10.5h2.2v10.5H260.7z"/>
			<path class="st2" d="M274.6,115.8h-2.8l-4.5-7.9h-0.1c0.1,1.4,0.1,2.4,0.1,3v4.9h-2v-10.5h2.8l4.5,7.8h0
				c-0.1-1.4-0.1-2.3-0.1-2.9v-5h2V115.8z"/>
			<path class="st2" d="M281.1,109.9h4.1v5.4c-0.7,0.2-1.3,0.4-1.9,0.5c-0.6,0.1-1.2,0.1-1.8,0.1c-1.6,0-2.7-0.5-3.6-1.4
				s-1.2-2.3-1.2-4c0-1.7,0.5-3,1.4-4s2.3-1.4,4-1.4c1.1,0,2.1,0.2,3.1,0.6l-0.7,1.8c-0.8-0.4-1.5-0.6-2.4-0.6c-0.9,0-1.7,0.3-2.3,1
				c-0.6,0.6-0.9,1.5-0.9,2.6c0,1.1,0.2,2,0.7,2.6c0.5,0.6,1.1,0.9,2,0.9c0.5,0,0.9,0,1.4-0.1v-2.2h-2V109.9z"/>
			<path class="st2" d="M298.6,108.6c0,1.1-0.3,2-1,2.6c-0.7,0.6-1.7,0.9-3,0.9h-0.9v3.7h-2.2v-10.5h3.3c1.3,0,2.2,0.3,2.9,0.8
				C298.3,106.7,298.6,107.5,298.6,108.6z M293.6,110.2h0.7c0.7,0,1.2-0.1,1.5-0.4c0.3-0.3,0.5-0.7,0.5-1.2c0-0.5-0.1-0.9-0.4-1.2
				c-0.3-0.2-0.7-0.4-1.3-0.4h-1V110.2z"/>
			<path class="st2" d="M306.5,115.8h-5.9v-10.5h5.9v1.8h-3.8v2.3h3.5v1.8h-3.5v2.7h3.8V115.8z"/>
			<path class="st2" d="M314.9,115.8l-0.7-2.5h-3.8l-0.7,2.5h-2.4l3.6-10.5h2.7l3.7,10.5H314.9z M313.7,111.4
				c-0.7-2.3-1.1-3.5-1.2-3.8c-0.1-0.3-0.1-0.5-0.2-0.7c-0.2,0.6-0.6,2.1-1.3,4.5H313.7z"/>
			<path class="st2" d="M323,107c-0.8,0-1.5,0.3-1.9,0.9c-0.5,0.6-0.7,1.5-0.7,2.6c0,2.3,0.9,3.5,2.6,3.5c0.7,0,1.6-0.2,2.6-0.6v1.9
				c-0.8,0.4-1.8,0.5-2.8,0.5c-1.5,0-2.6-0.5-3.4-1.4s-1.2-2.3-1.2-4c0-1.1,0.2-2,0.6-2.9s1-1.4,1.7-1.9c0.7-0.4,1.6-0.7,2.6-0.7
				c1,0,2,0.2,3,0.7l-0.7,1.8c-0.4-0.2-0.8-0.3-1.2-0.5S323.4,107,323,107z"/>
			<path class="st2" d="M333.8,115.8h-5.9v-10.5h5.9v1.8H330v2.3h3.5v1.8H330v2.7h3.8V115.8z"/>
			<path class="st2" d="M349,110.5c0,1.7-0.4,3.1-1.3,4c-0.8,0.9-2.1,1.4-3.6,1.4s-2.8-0.5-3.6-1.4c-0.8-0.9-1.3-2.3-1.3-4
				c0-1.7,0.4-3.1,1.3-4s2.1-1.4,3.7-1.4c1.6,0,2.8,0.5,3.6,1.4C348.6,107.4,349,108.8,349,110.5z M341.5,110.5
				c0,1.2,0.2,2.1,0.7,2.6s1.1,0.9,2,0.9c1.7,0,2.6-1.2,2.6-3.5c0-2.4-0.9-3.5-2.6-3.5c-0.9,0-1.5,0.3-2,0.9
				C341.7,108.5,341.5,109.3,341.5,110.5z"/>
			<path class="st2" d="M353.3,115.8h-2.2v-10.5h5.9v1.8h-3.8v2.7h3.5v1.8h-3.5V115.8z"/>
			<path class="st2" d="M367.2,115.8l-2.5-8.2h-0.1c0.1,1.7,0.1,2.8,0.1,3.3v4.9h-2v-10.5h3l2.4,8h0l2.6-8h3v10.5h-2v-5
				c0-0.2,0-0.5,0-0.8c0-0.3,0-1.1,0.1-2.4h-0.1l-2.7,8.2H367.2z"/>
			<path class="st2" d="M376.5,115.8v-10.5h2.2v10.5H376.5z"/>
			<path class="st2" d="M390.4,115.8h-2.8l-4.5-7.9h-0.1c0.1,1.4,0.1,2.4,0.1,3v4.9h-2v-10.5h2.8l4.5,7.8h0
				c-0.1-1.4-0.1-2.3-0.1-2.9v-5h2V115.8z"/>
			<path class="st2" d="M401.6,110.4c0,1.7-0.5,3-1.5,4c-1,0.9-2.4,1.4-4.2,1.4H393v-10.5h3.2c1.7,0,3,0.5,3.9,1.4
				C401.1,107.5,401.6,108.8,401.6,110.4z M399.3,110.5c0-2.3-1-3.4-2.9-3.4h-1.2v6.8h0.9C398.3,113.9,399.3,112.8,399.3,110.5z"/>
		</g>
	</g>
</g>
</svg>
